<?xml version="1.0" encoding="UTF-8"?><svg id="OBJECTS" xmlns="http://www.w3.org/2000/svg" viewBox="0 0 75 75"><defs><style>.cls-1{fill:#3f3f3f;stroke-width:0px;}.cls-2{fill:none;stroke:#3f3f3f;stroke-linecap:round;stroke-linejoin:round;stroke-width:3px;}</style></defs><path class="cls-2" d="M26.66,53.42l.63.38c3.08,1.83,6.59,2.8,10.14,2.8,10.98,0,19.92-8.94,19.92-19.92s-8.94-19.92-19.92-19.92-19.92,8.94-19.92,19.92c0,3.88,1.12,7.64,3.25,10.89l.4.61-2.53,8.19,8.02-2.95Z"/><path class="cls-1" d="M29.03,25.16c-.44.15-.82.42-1.37.99-1.22,1.28-1.79,2.61-1.87,4.41-.09,2.06.71,4.33,2.53,7.14,3.04,4.69,6.08,7.43,10.12,9.11,2.07.86,3.42,1.31,4.3,1.43.67.09,1.99-.11,2.81-.42.74-.29,1.77-.96,2.23-1.46.7-.77,1.31-2.5,1.31-3.72,0-.51-.01-.57-.19-.77-.37-.4-4.91-2.78-5.45-2.85-.49-.06-.68.07-1.49,1.01-1.25,1.46-1.64,1.84-1.86,1.84-.26,0-1.99-.87-2.81-1.41-2.02-1.33-3.69-3.16-5.01-5.49-.11-.19-.19-.37-.19-.41s.23-.33.51-.63c.67-.74.9-1.08,1.18-1.77.33-.78.32-.99-.12-2.17-.63-1.72-.83-2.26-1.18-3.19-.36-.96-.63-1.38-1-1.54-.34-.14-2.09-.2-2.45-.09Z"/></svg>