<?xml version="1.0" encoding="UTF-8"?><svg id="OBJECTS" xmlns="http://www.w3.org/2000/svg" viewBox="0 0 75 75"><defs><style>.cls-1{fill:#3f3f3f;stroke-width:0px;}</style></defs><path class="cls-1" d="M28.58,24.5c0,2.24-1.43,4.08-4.08,4.08-2.45,0-4.08-1.84-4.08-3.88,0-2.24,1.63-4.28,4.08-4.28s4.08,1.84,4.08,4.08Z"/><rect class="cls-1" x="20.42" y="30.62" width="8.16" height="26.52"/><path class="cls-1" d="M48.16,31.03c-4.28,0-6.73,2.45-7.75,4.08h-.2l-.41-3.47h-7.34c0,2.24.2,4.9.2,7.96v17.54h8.16v-14.48c0-.82,0-1.43.2-2.04.61-1.43,1.63-3.26,3.88-3.26,2.86,0,4.08,2.45,4.08,5.71v14.08h8.16v-15.1c0-7.55-3.88-11.02-8.98-11.02Z"/></svg>